/* XPM */
static char *result[] = {
/* columns rows colors chars-per-pixel */
"32 32 7 1 ",
"  c #3C343B",
". c #808192",
"X c #B7B3C3",
"o c #544A54",
"O c #1D191D",
"+ c #140D12",
"@ c #0A0B0F",
/* pixels */
"  ..  XXX...................... ",
"  XXXXoooXXXXXXXXX.........XXXXX",
" OooooooooooooooooXXXXXXXXXooooo",
"+O    ooooooooooooooooooooooooo ",
"+O ooooooooo   ooooo            ",
"+O           ooooo              ",
"+OOOOOOOOOOOOOOOOOOOOOOOOOOOOOOO",
"+OOooooooooooooooooooooooooooo O",
"+OOOo oo       ooooooo  ooo    O",
"+OOOo       oooo        ooooo  O",
"+OOO                           O",
"+OOOOOOOOOOOOOOOOOOOOOOOOOOOOOOO",
"+OooooooooooooOOOOO ooooooooooo ",
"+Oo  o        ooOO  o  oo  ooo  ",
"+O             OOO              ",
"+OOOOOOOOOOOOOOOOOOOOOOOOOOOOOOO",
"+O@OOOOOOOOOOOO@@@@@OOOOOOOOOOO@",
"+O@OOOOOOO@@@@@@@@@@@@OOO@@@@@O@",
"+O@O@@OOOO@@@@OO@@O@@@OO@O@O@OO@",
"+O@@@@@OOOOOO@OOO@O @@OO@OO @OO@",
"+O@@@OOOOO@OOO OO@O O@OO@O  OO@@",
"+O@@@O OOO@OO@  O@O  @OO@O  OO@@",
"+OO@@  O@+@OO@  O@O  @O+@@  OO@O",
"+OO@O OO@+@OO@@ O@O  O+++@ OOO@O",
"@OO@O O@@+@@O@@ O@O  O+++@ O@O@O",
"@OO@O O@@+@@O@@ O@OO O@++@O@@O@O",
"@O@@+OO@@+@@O@@@O@@O@@@@+@O@@O@O",
"@@@@++@@++@@O@@@O@@O@@@@+@O@@O@O",
"@@@@++@@++@@@@@@@@@@@@@@+@@@@O@O",
"+@@@@+@@+@@@@@@@@@@@@@@@@@@@@@@@",
"+@@@@@@@+@@@@@@@@@@@@@@@@@@@@@@@",
"@@@@@@@@@@@@@@@@@@@@@@@@@@@@@@@@"
};
