/* XPM */
static char *result[] = {
/* columns rows colors chars-per-pixel */
"32 32 10 1 ",
"  c #0A0B0F",
". c #0D0C0F",
"X c #151115",
"o c #3E140D",
"O c #140D12",
"+ c #251E23",
"@ c #3C343B",
"# c #3C343A",
"$ c #808192",
"% c #544A54",
/* pixels */
"                                ",
"..                              ",
".. ....       ...              .",
".......       ........       ...",
".......       ...........    ...",
".......        ..........   X...",
"....            ....XXXXX   XXXX",
"                                ",
". .....        ....          ...",
". ..... ..................   ...",
". ..... X.................   ...",
". ....X XX.................. ...",
". ...XX .XX.................  ..",
". ...XX  .XXXX............X.   .",
".  XXX   .XXXXXX......XXXX.    .",
"                                ",
"oooooooooooooooooooooooooooooooo",
"OOOOOOOOOoOOOooOOOOooOOOooOOOooO",
"++O+++++O+O+O++O++O++O+OOOO+O++O",
"++O++O++O+O+O++O++O++O++++++O++O",
"@@OOOO@@OOO#OOOO@@OOOO@XXXX@OOOO",
"#@###############@@@@@@#########",
"................................",
"X XXXXXXXX              ++++++XX",
"XX+++++++XXXXXXX+++++++++++++++X",
"XX++++++++XXXXX+++++++++++++++++",
"XX++++++++@@@@@@@@@@@@@@@++++@++",
"X++++++++@@@@@@@@@@@@@@@@@@@@@@@",
"X+++++++@@@@@@@@@@@@@@@@@@@@@@@@",
"X@@@@@@@@@$$$@@@@@@@$$$$$$$$@@@@",
"+@@@@@$$$$%%%$$$@@$$%%%%%%%%$$$%",
"+$$$$$%%%%%%%%%%$$%%%%%%%%%%%%%$"
};
