/* XPM */
static char *result[] = {
/* columns rows colors chars-per-pixel */
"32 32 94 2 ",
"   c #11131B",
".  c #13141C",
"X  c #14141C",
"o  c #17151D",
"O  c #15151E",
"+  c #18171F",
"@  c #1A171E",
"#  c #1C181E",
"$  c #1F191F",
"%  c #171720",
"&  c #191822",
"*  c #1A1923",
"=  c #1C1921",
"-  c #1D1A23",
";  c #1C1C27",
":  c #1F1C27",
">  c #201A22",
",  c #231D25",
"<  c #251E28",
"1  c #241E29",
"2  c #26202A",
"3  c #27202A",
"4  c #27202B",
"5  c #22202C",
"6  c #28212D",
"7  c #29212D",
"8  c #29212E",
"9  c #28222F",
"0  c #2A232E",
"q  c #2A242F",
"w  c #2B242F",
"e  c #2B2432",
"r  c #2C2531",
"t  c #2D2532",
"y  c #2C2433",
"u  c #2E2433",
"i  c #2C2633",
"p  c #2F2734",
"a  c #2E2635",
"s  c #2E2636",
"d  c #2E2736",
"f  c #302736",
"g  c #312937",
"h  c #32283A",
"j  c #32283B",
"k  c #332C39",
"l  c #342B3C",
"z  c #342A3D",
"x  c #342B3D",
"c  c #352A3E",
"v  c #342C3D",
"b  c #362E3C",
"n  c #372F3E",
"m  c #362F40",
"M  c #382C41",
"N  c #392E43",
"B  c #3A2F43",
"V  c #393041",
"C  c #3B3241",
"Z  c #3A3242",
"A  c #3B3045",
"S  c #3B3145",
"D  c #3A3244",
"F  c #3D3146",
"G  c #3C3246",
"H  c #3D3247",
"J  c #3D3347",
"K  c #3D3447",
"L  c #3E3447",
"P  c #3E3547",
"I  c #3D3448",
"U  c #3E3448",
"Y  c #3F3449",
"T  c #3E3549",
"R  c #3F3549",
"E  c #3F3649",
"W  c #40354A",
"Q  c #40364A",
"!  c #40384B",
"~  c #42384C",
"^  c #423A4D",
"/  c #433A4E",
"(  c #45394E",
")  c #453C4F",
"_  c #463B50",
"`  c #453C50",
"'  c #473C51",
"]  c #473D51",
"[  c #483E52",
"{  c #483E53",
"}  c #4A4054",
"|  c #4B4055",
" . c #4D4257",
".. c None",
/* pixels */
"................5 - : : : : : : : : : : : : = ; ................",
"..............5 E q S S T T J J J J ~ K S S 2 D ; ..............",
"............5 i ( 1 M M M F W W W W M M M M , W d ; ............",
"..........& 9 c J 1 z M M M M M M M M M M j , S z 9 % ..........",
"........& 9 a M J 1 y s s z M j z M M j s 9 , S M y 9 % ........",
"......& 9 9 h M A 1 9 9 h h h v m m m l h y , M M s 9 9 % ......",
"....& 9 a M M A S w ........................3 M M M M y 9 % ....",
"..& 9 9 9 y M B p ............................t M M e 9 9 9 % ..",
"  u 4 , 9 9 9 p ..............................! t 9 9 9 , 8 u   ",
"% h B W C 3 b ! ..............................! ! n w C W N J O ",
"  h M M M r ` ) ..............................! | [ k M M M J   ",
"  h M M M r ` } ..............................!  .[ u M M M x   ",
"  y M M M r `  ...............................! { [ u M M M e   ",
"  9 h M M r ` / ..............................S ! [ 1 M M s 9   ",
"  9 s s s 7 ` G ................................G [ 1 s s s 9   ",
"  9 9 9 9 , U ! ................................! Y 1 9 9 9 9   ",
"& f g k b 3 ` ! ................................/ [ w n k f u % ",
"  S M M B r ` [ ................................ .[ k N M M B   ",
"  S M M M 0 ` [ ................................ .[ f M M M !   ",
"  N M M M 7 ` [ ................................ .[ u M M M T   ",
"  M M M M 7 ` [ ................................[ [ u M M M M   ",
"  h M s M < ` / ................................! [ 6 M s M s   ",
"  y s 9 9 , ` ) ..............................! ] [ 1 9 9 s e   ",
"  9 9 9 9 , ~ ^ ..............................! ` Y 1 9 9 9 9   ",
"& k P ` W r ~ ) ..............................! ` [ k W ` Z k % ",
": S M M M r ` [ ..............................! ` [ k M M M J * ",
"% M M M M 7 ` / ..............................! ` [ u M M M M O ",
"  M M M M 7 ` ! I  .` Q  . .` H '  . . .J  . .R ^ [ u M M M M   ",
"  z M M M , ` K E ! ^ J ` ` ` S J / ` ! J ! ^ T T [ 1 s M M j   ",
"  y 9 9 9 , B ' [ [ [ L [ [ [ V L [ [ [ L [ [ [ _ N 1 9 9 9 9   ",
"  o # $ $ o # $ $ , , = , , , + = , , , = , , > $ @ X $ $ @ o   ",
"                        X .             X o o                   "
};
