/* XPM */
static char *result[] = {
/* columns rows colors chars-per-pixel */
"32 32 9 1 ",
"  c #808192",
". c #3C343B",
"X c #B7B3C3",
"o c #544A54",
"O c #140D12",
"+ c #605660",
"@ c #1D191D",
"# c #3E140D",
"$ c #0A0B0F",
/* pixels */
" ...                           X",
".oXXXXXXXX XXXXXXXXXXX    XXXXXo",
"OoooooooooXoooooooooooXXXXoooooo",
"O.ooooooooooooooooooooooooooooo.",
"O..oooooooooooooooooooooooooo...",
"O........ooooooooooooo..........",
"O.........OOO...................",
"OOOOO....OOOO..............OOOOO",
"OOOOOOOOOOOOOOOOOOOOOOOOOOOOOOOO",
"oooooooo+++++++++++++++++++++ooo",
"ooOOOOoOOOooOOOOooOOOOo@@@@oOOOO",
"..O..O.O.O..O..O..O..O......O..O",
"..O..O.O.O.....O..O..O.OOOO.O..O",
"OOO##OOO#OOOOOOOOOO##OOO##OOO##O",
"################################",
"OOOOOOOOOOOOOOOOOOOOOOOOOOOOOOOO",
"$$$$$$$$$$$$$$$$$$$$$$$$$$$$$$$$",
"OOO$$$$$@@@@@@@@$@@@@@@@@@@@@@OO",
"OOOOOO$$OOOOOO@@$OOOOO@@@@@@@@OO",
"OOOOOOO$OOOOOO@@$OOOOOOOOOOO@@OO",
"OOOOOOO$OOOOOOOO$OOOOOOOOOOOOO@O",
"OOOOOO$$OOOOOOOO$OOOOOOOOOOOOO@O",
"OOOOO$$$$$OOOOOO$OOOOOOOOOOOOO@O",
"OOOO$$$$$OOOOOOO$OOOOOOOOOOOOOOO",
"$$$$$$$$$$$$$$$$$$$$$$$$$$$$$$$$",
"O$OO@@@@@@@$$$OOOO$$$$$$$$$$@@@O",
"O$OOOOOOOO@@@$OOOOOOOOOO$$$OOOOO",
"O$OOOOOOOOOO@$OOOOOOOOOOO$$OOOOO",
"O$OOOOOOOOOOO$OOOOOOOOOOO$$OOOOO",
"O$OOOOOOOOOOO$OOOOOOOOOOO$$OOOOO",
"$$$$OOOOOOOOO$$$OOOOOOOOO$$OOOOO",
"$$$$$$$$$$$$$$$$$OOOOOOOOO$$$$OO"
};
