/* XPM */
static char *result[] = {
/* columns rows colors chars-per-pixel */
"32 32 5 1 ",
"  c #181519",
". c #281D22",
"X c #2C2328",
"o c #34292F",
"O c #E5D78C",
/* pixels */
"                                ",
"                                ",
"ooooXXXXXXXXXXXooXXXXXXXXXX  XXX",
"XoooooooooXXXooooooooXXXXXXXXooo",
"oooooooooooooooooooooooooooooooo",
"ooooXXXXooooooooXoooooooooooo..o",
"XXXXXoo........XoXX..........ooo",
"oooooooooooooooooooooX.....oooXX",
"ooooooooooooooooooooooooooXXXXoo",
"oXX......XoooooooXXooooooooooooo",
"XoooooooooXX.....XXXXX......XXXX",
"oooooooooo......oooooXXXXooooooo",
"ooooooooooooooooooooo oo Xoooooo",
"oooooooooooooooooooo   o  XXX...",
"                                ",
"                                ",
"OOOOOOOOOOOOOOOOOOOOOOOOOOOOOOOO",
"OOOOOOOOOOOOOOOOOOOOOOOOOOOOOOOO",
"OOOOOOOOOOOOOOOOOOOOOOOOOOOOOOOO",
"OOOOOOOOOOOOOOOOOOOOOOOOOOOOOOOO",
"OOOOOOOOOOOOOOOOOOOOOOOOOOOOOOOO",
"OOOOOOOOOOOOOOOOOOOOOOOOOOOOOOOO",
"OOOOOOOOOOOOOOOOOOOOOOOOOOOOOOOO",
"OOOOOOOOOOOOOOOOOOOOOOOOOOOOOOOO",
"OOOOOOOOOOOOOOOOOOOOOOOOOOOOOOOO",
"OOOOOOOOOOOOOOOOOOOOOOOOOOOOOOOO",
"OOOOOOOOOOOOOOOOOOOOOOOOOOOOOOOO",
"OOOOOOOOOOOOOOOOOOOOOOOOOOOOOOOO",
"OOOOOOOOOOOOOOOOOOOOOOOOOOOOOOOO",
"OOOOOOOOOOOOOOOOOOOOOOOOOOOOOOOO",
"OOOOOOOOOOOOOOOOOOOOOOOOOOOOOOOO",
"OOOOOOOOOOOOOOOOOOOOOOOOOOOOOOOO"
};
