/* XPM */
static char *result[] = {
/* columns rows colors chars-per-pixel */
"32 32 9 1 ",
"  c #808192",
". c #B7B3C3",
"X c #3C343B",
"o c #544A54",
"O c #1D191D",
"+ c #0A0B0F",
"@ c #605660",
"# c #140D12",
"$ c #3E140D",
/* pixels */
"    .X .  X   .X  .    X  ..  .X",
"...ooXoo..X..ooX..o....X..oo..oX",
"oooooOooooOooooOoooooooOooooooXO",
"oooooOooooOXXoXOoooooooOXooooXXO",
"XXoXXOoXooOXXXXOXXXooooOXXXXXXXO",
"XXoXXOoXoXOXX++OXXXXXoo++oXXXXOO",
"+XXX++XXooO++++O++XXoo++++++++O+",
"++++++XXXo+Xoo+++++++++++oooooo+",
"Xooo+++XXo++XX++Xoooooo+oXOOOXX+",
"o@@@@@@@@@@@@@@@oooooo@@@@@@@@@@",
"o####oo###@####oo####oOOOOo####o",
"X#XX#XX#X#X#XX#XX#XX#XXXXXX#XX#X",
"X#XXXXX#X#X#XX#XX#XX#X####X#XX#X",
"########$###$$####$$###$$###$$##",
"$$$$$$$$$$$$$$$$$$$$$$$$$$$$$$$$",
"################################",
"++++++++++++++++++++++++++++++++",
"##+++++OOOOOOOO+OOOOOOOOOOOOO###",
"#####++######OO+#####OOOOOOOO###",
"######+######OO+###########OO###",
"######+########+#############O##",
"#####++########+#############O##",
"####+++++######+#############O##",
"###+++++#######+################",
"++++++++++++++++++++++++++++++++",
"+##OOOOOOO+++####++++++++++OOO##",
"++#######OOO+##########+++######",
"+++++######O+###########++######",
"+++++++##++++###########++######",
"+++++++++++++###########++######",
"+++++++++++++++#########++######",
"++++++++++++++++#########++++##+"
};
