/* XPM */
static char *result[] = {
/* columns rows colors chars-per-pixel */
"32 32 8 1 ",
"  c #121115",
". c #27222B",
"X c #323847",
"o c #262A37",
"O c #28222F",
"+ c #372E41",
"@ c #1C1A1F",
"# c #1F191F",
/* pixels */
" ..XXooX OO+++++ ..oooXX .XX....",
" ....... O+OOOOO ....... .......",
" ....... OOOOOOO ....... .......",
" ......@ OOOOOOO ....... .......",
" @.....@ OOOOOOO @@....@ .......",
" @@@@@@@ OOOOOO# @@....@ .@...@@",
" @@@@@@@ ####### @@@@@@@ .@@@@@@",
"     ooooXXX                    ",
"..oo ......X X.X.... OO+++++ ooo",
"...o ......X .X..... OOOOOO+ o..",
"...o ....... ....... OOOOOOOo...",
".... ....... ....... OOOOOOOo@..",
".... @....@. ....... ##OOOO#o@..",
".... @....@@ @@@.... #####O#o@@@",
"@@.. @...@@@ @@@@@@@ #######o@@@",
"                                ",
" ..XXooX  ++++++ ..oooooooooooo ",
" ....... ++OOOO+ .............oo",
" ....... +OOOOOO .............oo",
" ......@ +OOOOOO .............o.",
" @.....@ OOOOOOO @@.............",
" @@@@@@@ OOOOOO# @@.......@...@@",
"  @@@@@@ ######   @@@@....@@@@@ ",
"                               o",
"ooo   oooXXXXooooooo  +++++  XXX",
"...o oooX........... +OOOOO+ o..",
"...o XXX............ OOOOOOO ...",
".... ............... OOOOOOO @..",
".... @....@......... ##OOOO# @..",
".... @@...@@.@@@.... ###OOO# @@@",
"@@.. @@@@@@@@@@@@@@@ ######  @@@",
"                                "
};
