/* XPM */
static char *result[] = {
/* columns rows colors chars-per-pixel */
"32 32 128 2 ",
"   c #0D0F0F",
".  c #0F1212",
"X  c #0F1718",
"o  c #121515",
"O  c #1F1917",
"+  c #151818",
"@  c #1A1C1D",
"#  c #2D1B15",
"$  c #221E19",
"%  c #371B14",
"&  c #3A1A13",
"*  c #34231C",
"=  c #3D211B",
"-  c #1C1F20",
";  c #1D2122",
":  c #212525",
">  c #212728",
",  c #252A2B",
"<  c #282C2D",
"1  c #2A2E30",
"2  c #2D3234",
"3  c #2E3638",
"4  c #303537",
"5  c #313638",
"6  c #343A3C",
"7  c #383D3F",
"8  c #431D14",
"9  c #4B2114",
"0  c #4B2618",
"q  c #532315",
"w  c #5B2614",
"e  c #5D2916",
"r  c #512618",
"t  c #632915",
"y  c #6C2C15",
"u  c #722E15",
"i  c #521021",
"p  c #741129",
"a  c #402820",
"s  c #522E21",
"d  c #453123",
"f  c #543123",
"g  c #573C2C",
"h  c #463634",
"j  c #6D263C",
"k  c #6C2A3D",
"l  c #694730",
"z  c #393F41",
"x  c #613343",
"c  c #3C4344",
"v  c #3F4648",
"b  c #3E4949",
"n  c #474542",
"m  c #4A4745",
"M  c #42474A",
"N  c #434B4D",
"B  c #4D4A4A",
"V  c #5E5042",
"C  c #52564C",
"Z  c #464E50",
"A  c #484F52",
"S  c #5A4E53",
"D  c #475152",
"F  c #4A5254",
"G  c #4F575A",
"H  c #4E5B5C",
"J  c #535B5D",
"K  c #565E61",
"L  c #5B5960",
"P  c #566265",
"I  c #596466",
"U  c #5E6A6C",
"Y  c #5F7070",
"T  c #616C6D",
"R  c #6A706A",
"E  c #646E71",
"W  c #657274",
"Q  c #697376",
"!  c #677679",
"~  c #6C767A",
"^  c #6C797C",
"/  c #707B7F",
"(  c #960D2D",
")  c #980F30",
"_  c #801D37",
"`  c #875A3C",
"'  c #9A3A4A",
"]  c #934C51",
"[  c #A4555F",
"{  c #80625F",
"}  c #9C7E7A",
"|  c #A67D77",
" . c #938072",
".. c #727E81",
"X. c #6D8080",
"o. c #738485",
"O. c #778588",
"+. c #788689",
"@. c #7B8C8E",
"#. c #7E8F91",
"$. c #7F9092",
"%. c #829495",
"&. c #859893",
"*. c #839799",
"=. c #859A9A",
"-. c #8C9D9D",
";. c #929D96",
":. c #98A197",
">. c #B2B291",
",. c #BCBC9A",
"<. c #8BA2A3",
"1. c #93ABAB",
"2. c #96B1B0",
"3. c #9BB6B5",
"4. c #9EBAB9",
"5. c #A8BBB2",
"6. c #A1BDBA",
"7. c #D5A382",
"8. c #C3C39F",
"9. c #C4C4A2",
"0. c #CDCCAA",
"q. c #D4D4B3",
"w. c #DEDEBA",
"e. c #E5E5C2",
"r. c #ECEAC7",
"t. c #EEEECB",
"y. c #F0F0CD",
"u. c #E5D78C",
/* pixels */
"u.u.u.u.u.u.u.u.u.u.u.u.u.u.u.u.u.u.u.u.3.<.1.2.u.u.u.u.u.u.u.u.",
"u.u.u.u.u.u.u.u.u.u.u.u.u.u.~ O.$.^ 7 K O.J I Q M $.u.u.u.u.u.u.",
"u.u.u.u.u.u.u.u.u.u.u.u.u.u.7 F K K U O.5.-.O.o.E 6 u.u.u.u.u.u.",
"u.u.u.u.u.u.u.u.u.u.u.u.u.u.u.o - 1 6 b C &.o.v u.u.u.u.u.u.u.u.",
"u.u.u.u.u.u.u.u.u.u.u.u.u.u.u.+ + , 2 + o N z + u.u.u.u.u.u.u.u.",
"u.u.u.u.u.u.u.u.u.u.u.u.u.u.u.u.; < 4 + o + + + u.u.u.u.u.u.u.u.",
"u.u.u.u.u.u.u.u.u.u.u.u.u.u.u.u.c 5 6 U T T T T u.u.u.u.u.u.u.u.",
"u.u.u.u.u.u.u.u.u.u.u.J X.X.N M G Z , : : : : c u.u.u.u.u.u.u.u.",
"u.u.u.u.u.u.u.u.u.u.u.^ O.O.*.D < A I 7 6 6 , 2 U 2.u.u.u.u.u.u.",
"u.u.u.u.u.u.u.u.u.^ ~ ~ ~ ~ 1.H > D $.$.#.:.R J :.$.v u.u.u.u.u.",
"u.u.u.u.u.u.u.u.u.^ ~ ~ Q c z > : H 4.4.4.6.^ I 6.4.N @ u.u.u.u.",
"u.u.u.u.u.u.u.u.u.u.u.J J W @.N > M / =.=.2.^ P 3.=.v @ o u.u.u.",
"u.u.u.u.u.u.u.u.u.u.u.^ ....=.D + , N T E *.W K <.E c ; + + u.u.",
"u.u.u.u.u.u.u.u.u.N F E =.=.5 o o o + 5 5 c Z F b 3 1 ; o + u.u.",
"u.u.u.u.u.u.u.u.u.^ Q E W u.u.+ ; 2 4 + 2 7 c b z 5 @ . o + + u.",
"u.u.u.u.u.u.u.u.u.^ ~ ..%.u.u.% % % , , 4 Z T W F 5 s # o $ d u.",
"u.u.u.u.u.u.u.u.u.*.%.=.2.u.u.& 8 r f 9 r f f s s f q u.g l ` ` ",
"u.u.u.u.u.u.u.u.u.u.n m n X # & & & 8 & & 8 9 9 8 = y u.u.` ` ` ",
"u.u.u.u.u.u.u.u.u.u.: V 7.= % & & & 9 t u u u u u u u u.u.u.u.u.",
"u.u.u.u.u.u.u.u.u.[ ' p > % & & & 8 y u u u u u u u u u u.u.u.u.",
"u.u.u.u.u.u.u.u.u.} | ] i 8 & & 9 e u u u u u u u u u u u.u.u.u.",
"u.u.u.u.u.u.u.u.r.0. .j ( 8 & & q u u u u u u u u u u u u.u.u.u.",
"u.u.u.u.u.u.u.t.q.8.{ j ( 8 % % q u u u u u u u u u u u u.u.u.u.",
"u.u.u.u.u.u.t.e.9.u.u.j ) S h = 8 y u u y t t e e e u u u.u.u.u.",
"u.u.u.u.u.y.y.,.u.u.u.x _ L P B h 8 w w 8 # O + + + 0 u.u.u.u.u.",
"u.u.u.u.u.e.,.u.u.u.u.u.x -.! P I u.u.u.O + + + + + u.u.u.u.u.u.",
"u.u.u.u.e.0.>.u.u.u.u.u.E N P U u.u.u.u.u.+ o . . u.u.u.u.u.u.u.",
"u.u.u.t.w.>.u.u.u.u.u.u.1.U u.u.u.u.u.u.u.. o o + u.u.u.u.u.u.u.",
"u.u.y.q.>.u.u.u.u.u.u.u.P P u.u.u.u.u.u.u.u.u.+ + u.u.u.u.u.u.u.",
"u.t.q.,.u.u.u.u.u.u.u.1 3 3 u.u.u.u.u.u.u.u.u.. o u.u.u.u.u.u.u.",
"y.w.9.u.u.u.u.u.u.u.z c > ; u.u.u.u.u.u.u.u.u.      u.u.u.u.u.u.",
"u.u.u.u.u.u.u.u.u., ; , ; , u.u.u.u.u.u.u.u.u.        u.u.u.u.u."
};
