/* XPM */
static char *result[] = {
/* columns rows colors chars-per-pixel */
"32 32 8 1 ",
"  c #0A0B0F",
". c #3E140D",
"X c #140D12",
"o c #251E23",
"O c #605660",
"+ c #1D191D",
"@ c #3C343B",
"# c #544A54",
/* pixels */
"                .XooXOXXXXXXXXXX",
"       XX++++++X.XooXOX++@@####X",
"      XXXX++++++.XXXXOX+@@#####X",
"     XXXXXXXX+++..ooXOX+@@#####X",
"     XXXXXXXXX++..ooXOX+@@#####X",
"     XXXXXXXXX+X.XXXX#X++@@@@@#X",
"    XXXXXXXXXX+X.X@@##X++++@@@@X",
"     XXXXXXXXXXX.XXXX#X+++++@@@X",
"       XXXXXXXXX..@@XOXXXXXXXXXX",
"                ..@@XOOOOOOOOOOO",
" XXXXX   XXX+++ .XXXX##XXXXX####",
" XXXXXX XXXXX++ .X@@@@@X@@@X@@@@",
" XXXXXX XXXXXX+ .X@@@@@X@@@X@@@@",
" XXXXXX XXXXXXX .X.XXX.X...XXXXX",
"  XXXX  XXXXXXX ................",
"                XXXXXXXXXXXXXXXX",
"                        ++++++  ",
"        XX++++XXX++ ++++++++++++",
"      XXXXXXXXXXXX+ XXXXXXX+++XX",
"      XXXXXXXXXXX++ XXXXXXXXXXXX",
"         XXXXXXXX+X XXXXXXXXXXXX",
"        XXXXXXXXX+X XXXXXXXXXXXX",
"        XXXXXXXXXXX XXXXXXXXXXXX",
"         XXXXXXXXXX     XXXXXXXX",
"                                ",
"      XXXX        XXXXX++++++XXX",
"     XXXXXX      XXXXXXXXXXXXXXX",
"     XXXXXX      XXXXXXXXXXXXXXX",
"     XXXXXX      XXXXX     XXXXX",
"                         XXXXXXX",
"                               X",
"                                "
};
