/* XPM */
static char *result[] = {
/* columns rows colors chars-per-pixel */
"32 32 8 1 ",
"  c #0A0B0F",
". c #0D0C0F",
"X c #151115",
"o c #3E140D",
"O c #140D12",
"+ c #251E23",
"@ c #3C343B",
"# c #3C343A",
/* pixels */
"                                ",
"                               .",
"                         .......",
"     ......      .....     .....",
"     ......      ...............",
"     ......      ...............",
"      ....        .....XXXXXX...",
"                                ",
"         ..........     ........",
"      ............. ............",
"      ............. ............",
"      ............. ............",
"      ............X ............",
"      ............X .......XXX..",
"        .XX..XXXXXX XXXXXXXXXXXX",
"                        XXXXXX  ",
"               ooooooooooooooooo",
".X   .XXXXXX.XoOOOOOOOOOoOOOooOO",
"..X .....XXX.oOO+O+++++O+O+O++O+",
"..X ........oOO++O++O++O+O+O++O+",
"... .......oOO++@OOOO@@OOO#OOOO@",
"... ......oO+O+@@###############",
"...  ....ooO++@#................",
"..    ..ooOO+@#.XXXXXXXXXXXXXXX ",
"       ooOOO@#. XXXXXXXXXXXXXX+ ",
"  XX..ooo+O@#.X XXXXXXX++++XXX+X",
" ....ooo+X@#.XX XXXXXX++++++XX@X",
" ...ooo+X@@.XXX +X+XXXXXX+++X+@X",
" ..oOOOO@@.XXXX +XXX+XXX++++++@X",
" .oOOOO@#.XXXXX ++++++@@@+++++@X",
" oXo++@#.XXXXXX  ++++@@@@@@@@@@X",
"oOo++@#.XXXXXXX  +@@@@@@@@@@@@@X"
};
