/* XPM */
static char *result[] = {
/* columns rows colors chars-per-pixel */
"32 32 2 1 ",
"  c #0A0B0F",
". c #0D0C0F",
/* pixels */
"                                ",
"                                ",
"                                ",
"                                ",
"                                ",
"                                ",
"                                ",
"                                ",
"                                ",
"                                ",
"                                ",
"                                ",
"                                ",
"                                ",
"                                ",
"                                ",
"                                ",
"                             ...",
"                             ...",
"                            ....",
"                            ....",
"                            ....",
"                            ....",
"                             ...",
"                                ",
"                      ....      ",
"                     .........  ",
"                     .......... ",
"                     .......... ",
"                     .......... ",
"                      ......... ",
"                       .......  "
};
