/* XPM */
static char *result[] = {
/* columns rows colors chars-per-pixel */
"32 32 8 1 ",
"  c #0A0B0F",
". c #3E140D",
"X c #0D0C0F",
"o c #151115",
"O c #140D12",
"+ c #251E23",
"@ c #3C343B",
"# c #3C343A",
/* pixels */
"                               .",
"        XXXXooXXXo   XooooooXo.O",
"       XXXXXXXXXXXo XXXXXoooX.OO",
"   XX     XXXXXXXXo XXXXXXXX.OO+",
"   XXX    XXXXXXXXX XXXXXXX.OO++",
"   XXX  XXXXXXXXXXX XXXXXX.O+O+@",
"   XX   XXXXXXXXXXX  XXXX..O++@#",
"   XX    XXXXXXXXX    XX..OO+@#X",
"                       ..OOO@#X ",
"     XXXXoooooo   ooXX...+O@#Xo ",
"   XXXXXXXXXXXo  XXXX...+o@#Xoo ",
"    XXXXXXXXXXo  XXX...+o@@Xooo ",
"    XXXXXXXXXXX  XX.OOOO@@Xoooo ",
"    XXXXXXXXXXX  X.OOOO@#Xooooo ",
"    XXXXXXXXXXX  .o.++@#Xoooooo ",
"      XXXXXXXX  .O.++@#Xooooooo ",
"                .O++@#X         ",
"         XXoooXX.OOOO#Xoo+++@@  ",
"         XXooooX..++O#Xoo++@@@@@",
"   XXX   XXXXooo..++O#Xoo++@@@@@",
"   XXXX  XXXXXoo.OOOO#Xo+++@@@@@",
"   XXXX  XXXXXoo.O++##Xo++++++@@",
"  XXXXX  XXXXXXX.OOOO#X+++++++@@",
"  XXXX   XXXXXXX..++O#X +++++++ ",
"  XXXX     XXXXX.OOOO#X        o",
"   XXX          .O++@#Xoo@@@@ ++",
"         XooooX .O++@#Xo+++@@ ++",
"       XXXXXXooo.O+OO#Xo+++@@ ++",
"       XXXXXXXoo.O++O#Xoo+++@ +@",
"      XXXXXXXXoo.O++O#Xoo++++ +@",
"      XXXXXXXXoo.OOOO#Xooo+++ +@",
"      XXXXXXXXoo.O++@@X         "
};
