/* XPM */
static char *result[] = {
/* columns rows colors chars-per-pixel */
"32 32 11 1 ",
"  c #0A0B0F",
". c #0D0C0F",
"X c #140D12",
"o c #151115",
"O c #3E140D",
"+ c #251E23",
"@ c #3C343A",
"# c #3C343B",
"$ c #544A54",
"% c #808192",
"& c None",
/* pixels */
"OX+##@.              ooooooo++++",
"XX+#@.oooo++####   +++######%%%$",
"X+@@.oooo+++####   ++++++##%$$$&",
"+@@. ooo++######  +++#####%$$$&&",
"@@.o oo++####### ++++####%$$$&&&",
"@.oo oo+++######o++++####%$$&&&&",
".ooo  oo+++#####o++++###%$$&&&&&",
"oooo   ooo+++###ooo++###%$&&&&&&",
"           ooo  $$$oooo++&&&&&&&",
"ooooo++  ++++++####$$$%$&&&&&&&&",
"ooo+++## +++########%%$&&&&&&&&&",
"oo++++## +++#######%%$&&&&&&&&&&",
"oo+++++# +++++####%$$&&&&&&&&&&&",
"oo+++++# ++++#####%$&&&&&&&&&&&&",
"oo+++++#  +++####%$&&&&&&&&&&&&&",
"ooo++++   ++++##%$&&&&&&&&&&&&&&",
"     ooooooo++++&&&&&&&&&&&&&&&&",
"  ++++#######%%$&&&&&&&&&&&&&&&&",
" +++#######%%$$&&&&&&&&&&&&&&&&&",
" +++######%$$$&&&&&&&&&&&&&&&&&&",
" +++######%$$&&&&&&&&&&&&&&&&&&&",
"o+++#####%$$&&&&&&&&&&&&&&&&&&&&",
"o++++###%$$&&&&&&&&&&&&&&&&&&&&&",
"o +++###%$&&&&&&&&&&&&&&&&&&&&&&",
"oo$$$$$++&&&&&&&&&&&&&&&&&&&&&&&",
"#####%%$&&&&&&&&&&&&&&&&&&&&&&&&",
"####%$$&&&&&&&&&&&&&&&&&&&&&&&&&",
"###%$$&&&&&&&&&&&&&&&&&&&&&&&&&&",
"##%$$&&&&&&&&&&&&&&&&&&&&&&&&&&&",
"#%$$&&&&&&&&&&&&&&&&&&&&&&&&&&&&",
"%$$&&&&&&&&&&&&&&&&&&&&&&&&&&&&&",
"%$&&&&&&&&&&&&&&&&&&&&&&&&&&&&&&"
};
