/* XPM */
static char *result[] = {
/* columns rows colors chars-per-pixel */
"32 32 8 1 ",
"  c #0A0B0F",
". c #140D12",
"X c #1D191D",
"o c #3E140D",
"O c #3C343B",
"+ c #251E23",
"@ c #544A54",
"# c #605660",
/* pixels */
"                                ",
"                  ....          ",
"                 .....          ",
"                 .....          ",
"                 .....   .      ",
"   ...           .....  .....   ",
"   ....     ..    ...   ......  ",
"   ....     ..         ........ ",
"   ....  .. ...  ....  ........ ",
"   .... .......  ..... .......X ",
"   ...  ......X  ..... ......XX ",
"        ......X  ..... ......XX ",
"        ......X  ....X ......XX ",
"        ......X  ...XX .....XXX ",
"        .......  ..XXX ..XXXXXX ",
"        .......        ....XXX. ",
"        ....... .ooooooooooooooo",
"   ...  ..XXX.X .o....oo...oo...",
"   .... ....XXX .ooOO.OO.O.++.++",
"   ....         .o.OO.OO.O.++.++",
"   ....  .....X .o.OO....@......",
"   ....  .....X .o.OO@##@@@#####",
"    ...  .....X .ooOO@#.........",
"    ..X  .....X .o....#.XXXXXXX.",
"    ..X ......XX.ooOO.#.XXXOOOX.",
"  . ..X ......XX.ooOO.#.XXOOOOO.",
"  . ..X ......XX.ooOO.#.XXO@@@O.",
"  ....X .....XXX.o....#.XOO@@@@.",
"  ....X .....XXX.o.OO@#.OOO@@@@.",
"  ..... .....XXX.o.OO@#.OOO@@@@.",
"  ..... ......X .o.OO@#.OO@@@@@.",
" ...... ......X .o.OO@#........."
};
