/* XPM */
static char *result[] = {
/* columns rows colors chars-per-pixel */
"32 32 10 1 ",
"  c #0A0B0F",
". c #3E140D",
"X c #140D12",
"o c #251E23",
"O c #3C343B",
"+ c #3C343A",
"@ c #0D0C0F",
"# c #151115",
"$ c #808192",
"% c #544A54",
/* pixels */
"                .XooO+@       oo",
"    @@@@###  @##.XXXX+@oooOOOO$$",
"  @@@@@@@@#  @@#..ooX+@ooOOOOOO$",
"  @@@@@@@@# @@##..ooX+@OOOOOOOO%",
"  @@@@@@@@# @@##.XXXX+@ooooooOO%",
"  @@@@@@@@# @@##.XooO+@ ##%%%ooo",
"   @@@@@@@@ @@##.XXo#+@OO#ooo%$$",
"             @@#..Xo#+@oO#ooOO$%",
"                ..Xo#+@oO#ooOOO%",
"   @ @@  @@@@###.XXo#+@oO##oooO$",
"    @@@  @@@@###.XooOO@   ####oo",
"   @@@@ @@@@@@##.XXXXO@ooooOO%%%",
"   @@@@ @@@@@@##..ooXO@ooOOOOO$%",
"   @@@  @@@@@@##..ooXO@ooOOOOO$%",
"         @@@@@@#.XXXXO@#ooooOO$%",
"          @@@@@#.XooOO@##ooooO%$",
"                .XooO+@   ###ooo",
"  @@@    @@ ####.XXXX+@ ##ooOOO$",
"  @@@@@@@@@ @###..ooX+@##ooOOOO$",
"  @@@@@@@@@ @@##..ooX+@ooooooOO%",
"  @@@@@@@@@ @@##.XXXX+@#ooooooO%",
"     @@@@@  @@##.Xoo++@#######oo",
" @@         @@@#.XXXX+@ooOOO%%%$",
"@@@@@       @@@#..ooX+@oOOOOOO%$",
"@@@@@           .XXXX+@OOOOOOO$%",
"@@@@@  @@@@@####.XooO+@ooOOOOO$%",
"@@@@@  @@@@@@@##.XooO+@oooOOOO$$",
"@@@@@  @@@@@@@##.XoXX+@  #####oo",
"@@@@@  @@@@@@@##.XooX+@ #ooOOOO$",
"       @@@@@@@##.XooX+@##oOOOOO$",
"       @@@@@@@@#.XXXX+@##oooOOO%",
"       @@@@@@@@#.XooOO@ #ooooOO%"
};
