/* XPM */
static char *result[] = {
/* columns rows colors chars-per-pixel */
"32 32 8 1 ",
"  c #140D12",
". c #605660",
"X c #251E23",
"o c #3E140D",
"O c #0A0B0F",
"+ c #544A54",
"@ c #3C343B",
"# c #1D191D",
/* pixels */
"          . XX oOOOOOOOOOOOOOOOO",
" ++++@@## . XX o ######  OOOOOOO",
" +++++@@# .    o######    OOOOOO",
" +++++@@# . XXoo###        OOOOO",
" +++++@@# . XXoo##         OOOOO",
" +@@@@@## +    o #         OOOOO",
" @@@@#### ++@@ o #          OOOO",
" @@@##### +    o           OOOOO",
"          . @@oo         OOOOOOO",
"........... @@ooOOOOOOOOOOOOOOOO",
"++++     ++    oO###   OOO     O",
"@@@@ @@@ @@@@@ oO##     O      O",
"@@@@ @@@ @@@@@ oO#      O      O",
"     ooo o   o oO       O      O",
"ooooooooooooooooO       OO    OO",
"                OOOOOOOOOOOOOOOO",
"OO######OOOOOOOOOOOOOOOOOOOOOOOO",
"############O##   ####  OOOOOOOO",
"  ###       O#            OOOOOO",
"            O##           OOOOOO",
"            O #        OOOOOOOOO",
"            O #         OOOOOOOO",
"            O           OOOOOOOO",
"        OOOOO          OOOOOOOOO",
"OOOOOOOOOOOOOOOOOOOOOOOOOOOOOOOO",
"   ######     OOOOOOOO    OOOOOO",
"               OOOOOO      OOOOO",
"               OOOOOO      OOOOO",
"     OOOOO     OOOOOO      OOOOO",
"       OOOOOOOOOOOOOOOOOOOOOOOOO",
" OOOOOOOOOOOOOOOOOOOOOOOOOOOOOOO",
"OOOOOOOOOOOOOOOOOOOOOOOOOOOOOOOO"
};
