/* XPM */
static char *result[] = {
/* columns rows colors chars-per-pixel */
"32 32 11 1 ",
"  c #0A0B0F",
". c #0D0C0F",
"X c #140D12",
"o c #151115",
"O c #3E140D",
"+ c #251E23",
"@ c #3C343A",
"# c #3C343B",
"$ c #544A54",
"% c #808192",
"& c None",
/* pixels */
"++++ooooooo              .@##+XO",
"$%%%######+++   ####++oooo.@#+XX",
"&$$$%##++++++   ####+++oooo.@@+X",
"&&$$$%#####+++  ######++ooo .@@+",
"&&&$$$%####++++ #######++oo o.@@",
"&&&&$$%####++++o######+++oo oo.@",
"&&&&&$$%###++++o#####+++oo  ooo.",
"&&&&&&$%###++ooo###+++ooo   oooo",
"&&&&&&&++oooo$$$  ooo           ",
"&&&&&&&&$%$$$####++++++  ++ooooo",
"&&&&&&&&&$%%########+++ ##+++ooo",
"&&&&&&&&&&$%%#######+++ ##++++oo",
"&&&&&&&&&&&$$%####+++++ #+++++oo",
"&&&&&&&&&&&&$%#####++++ #+++++oo",
"&&&&&&&&&&&&&$%####+++  #+++++oo",
"&&&&&&&&&&&&&&$%##++++   ++++ooo",
"&&&&&&&&&&&&&&&&++++ooooooo     ",
"&&&&&&&&&&&&&&&&$%%#######++++  ",
"&&&&&&&&&&&&&&&&&$$%%#######+++ ",
"&&&&&&&&&&&&&&&&&&$$$%######+++ ",
"&&&&&&&&&&&&&&&&&&&$$%######+++ ",
"&&&&&&&&&&&&&&&&&&&&$$%#####+++o",
"&&&&&&&&&&&&&&&&&&&&&$$%###++++o",
"&&&&&&&&&&&&&&&&&&&&&&$%###+++ o",
"&&&&&&&&&&&&&&&&&&&&&&&++$$$$$oo",
"&&&&&&&&&&&&&&&&&&&&&&&&$%%#####",
"&&&&&&&&&&&&&&&&&&&&&&&&&$$%####",
"&&&&&&&&&&&&&&&&&&&&&&&&&&$$%###",
"&&&&&&&&&&&&&&&&&&&&&&&&&&&$$%##",
"&&&&&&&&&&&&&&&&&&&&&&&&&&&&$$%#",
"&&&&&&&&&&&&&&&&&&&&&&&&&&&&&$$%",
"&&&&&&&&&&&&&&&&&&&&&&&&&&&&&&$%"
};
