/* XPM */
static char *result[] = {
/* columns rows colors chars-per-pixel */
"32 32 8 1 ",
"  c #0A0B0F",
". c #0D0C0F",
"X c #151115",
"o c #3E140D",
"O c #140D12",
"+ c #251E23",
"@ c #3C343B",
"# c #3C343A",
/* pixels */
"                                ",
".                               ",
".......                         ",
".....     .....      ......     ",
"...............      ......     ",
"...............      ......     ",
"...XXXXXX.....        ....      ",
"                                ",
"........     ..........         ",
"............ .............      ",
"............ .............      ",
"............ .............      ",
"............ X............      ",
"..XXX....... X............      ",
"XXXXXXXXXXXX XXXXXX..XX.        ",
"  XXXXXX                        ",
"ooooooooooooooooo               ",
"OOooOOOoOOOOOOOOOoX.XXXXXX.   X.",
"+O++O+O+O+++++O+OOo.XXX..... X..",
"+O++O+O+O++O++O++OOo........ X..",
"@OOOO#OOO@@OOOO@++OOo....... ...",
"###############@@+O+Oo...... ...",
"................#@++Ooo....  ...",
" XXXXXXXXXXXXXXX.#@+OOoo..    ..",
" +XXXXXXXXXXXXXX .#@OOOoo       ",
"X+XXX++++XXXXXXX X.#@O+ooo..XX  ",
"X@XX++++++XXXXXX XX.#@O+ooo.... ",
"X@+X+++XXXXXX+X+ XXX.@@O+ooo... ",
"X@++++++XXX+XXX+ XXXX.@@OOOOo.. ",
"X@+++++@@@++++++ XXXXX.#@OOOOo. ",
"X@@@@@@@@@@++++  XXXXXX.#@++oOo ",
"X@@@@@@@@@@@@@+  XXXXXXX.#@++oOo"
};
