/* XPM */
static char *result[] = {
/* columns rows colors chars-per-pixel */
"32 32 8 1 ",
"  c #3E140D",
". c #0A0B0F",
"X c #140D12",
"o c #151115",
"O c #0D0C0F",
"+ c #251E23",
"@ c #3C343B",
"# c #3C343A",
/* pixels */
" ...............................",
"X oOooooooO...oOOOooOOOO........",
"XX OoooOOOOO.oOOOOOOOOOOO.......",
"+XX OOOOOOOO.oOOOOOOOO.....OO...",
"++XX OOOOOOO.OOOOOOOOO....OOO...",
"@+X+X OOOOOO.OOOOOOOOOOO..OOO...",
"#@++X  OOOO..OOOOOOOOOOO...OO...",
"O#@+XX  OO....OOOOOOOOO....OO...",
".O#@XXX  .......................",
".oO#@X+   OOoo...ooooooOOOO.....",
".ooO#@X+   OOOO..oOOOOOOOOOOO...",
".oooO@@X+   OOO..oOOOOOOOOOO....",
".ooooO@@XXXX OO..OOOOOOOOOOO....",
".oooooO#@XXXX O..OOOOOOOOOOO....",
".ooooooO#@++ o ..OOOOOOOOOOO....",
".oooooooO#@++ X ..OOOOOOOO......",
".........O#@++X ................",
"..@@+++ooO#XXXX OOoooOO.........",
"@@@@@++ooO#X++  OooooOO.........",
"@@@@@++ooO#X++  oooOOOO...OOO...",
"@@@@@+++oO#XXXX ooOOOOO..OOOO...",
"@@++++++oO##++X ooOOOOO..OOOO...",
"@@+++++++O#XXXX OOOOOOO..OOOOO..",
".+++++++.O#X++  OOOOOOO...OOOO..",
"o........O#XXXX OOOOO.....OOOO..",
"++.@@@@ooO#@++X ..........OOO...",
"++.@@+++oO#@++X .OooooO.........",
"++.@@+++oO#XX+X oooOOOOOO.......",
"@+.@+++ooO#X++X ooOOOOOOO.......",
"@+.++++ooO#X++X ooOOOOOOOO......",
"@+.+++oooO#XXXX ooOOOOOOOO......",
".........O@@++X ooOOOOOOOO......"
};
