/* XPM */
static char *result[] = {
/* columns rows colors chars-per-pixel */
"32 32 8 1 ",
"  c #0A0B0F",
". c #140D12",
"X c #1D191D",
"o c #3E140D",
"O c #251E23",
"+ c #3C343B",
"@ c #544A54",
"# c #605660",
/* pixels */
"                                ",
"          ....                  ",
"          .....                 ",
"          .....                 ",
"      .   .....                 ",
"   .....  .....           ...   ",
"  ......   ...    ..     ....   ",
" ........         ..     ....   ",
" ........  ....  ... ..  ....   ",
" X....... .....  ....... ....   ",
" XX...... .....  X......  ...   ",
" XX...... .....  X......        ",
" XX...... X....  X......        ",
" XXX..... XX...  X......        ",
" XXXXXX.. XXX..  .......        ",
" .XXX....        .......        ",
"ooooooooooooooo. .......        ",
"...oo...oo....o. X.XXX..  ...   ",
"OO.OO.+.++.++oo. XXX.... ....   ",
"OO.OO.+.++.++.o.         ....   ",
"......@....++.o. X.....  ....   ",
"#####@@@##@++.o. X.....  ....   ",
".........#@++oo. X.....  ...    ",
".XXXXXXX.#....o. X.....  X..    ",
".X+++XXX.#.++oo.XX...... X..    ",
".+++++XX.#.++oo.XX...... X.. .  ",
".+@@@+XX.#.++oo.XX...... X.. .  ",
".@@@@++X.#....o.XXX..... X....  ",
".@@@@+++.#@++.o.XXX..... X....  ",
".@@@@+++.#@++.o.XXX..... .....  ",
".@@@@@++.#@++.o. X...... .....  ",
".........#@++.o. X...... ...... "
};
