/* XPM */
static char *result[] = {
/* columns rows colors chars-per-pixel */
"32 32 10 1 ",
"  c #251E23",
". c #0A0B0F",
"X c #0D0C0F",
"o c #3C343A",
"O c #3C343B",
"+ c #140D12",
"@ c #3E140D",
"# c #808192",
"$ c #151115",
"% c #544A54",
/* pixels */
"  .......XoO  +@................",
"##OOOO   Xo++++@$$X..$$$XXXX....",
"#OOOOOO  Xo+  @@$XX..$XXXXXXXX..",
"%OOOOOOOOXo+  @@$$XX.$XXXXXXXX..",
"%OO      Xo++++@$$XX.$XXXXXXXX..",
"   %%%$$.XoO  +@$$XX.$XXXXXXXX..",
"##%   $OOXo$ ++@$$XX.XXXXXXXX...",
"%#OO  $O Xo$ +@@$XX.............",
"%OOO  $O Xo$ +@@................",
"#O   $$O Xo$ ++@$$$XXXX..XX.X...",
"  $$$$...XOO  +@$$$XXXX..XXX....",
"%%%OO    XO++++@$$XXXXXX.XXXX...",
"%#OOOOO  XO+  @@$$XXXXXX.XXXX...",
"%#OOOOO  XO+  @@$$XXXXXX..XXX...",
"%#OO    $XO++++@$XXXXXX.........",
"#%O    $$XOO  +@$XXXXX..........",
"   $$$...XoO  +@................",
"#OOO  $$.Xo++++@$$$$.XX....XXX..",
"#OOOO  $$Xo+  @@$$$X.XXXXXXXXX..",
"%OO      Xo+  @@$$XX.XXXXXXXXX..",
"%O      $Xo++++@$$XX.XXXXXXXXX..",
"  $$$$$$$Xoo  +@$$XX..XXXXX.....",
"#%%%OOO  Xo++++@$XXX.........XX.",
"#%OOOOOO Xo+  @@$XXX.......XXXXX",
"%#OOOOOOOXo++++@...........XXXXX",
"%#OOOOO  XoO  +@$$$$XXXXX..XXXXX",
"##OOOO   XoO  +@$$XXXXXXX..XXXXX",
"  $$$$$..Xo++ +@$$XXXXXXX..XXXXX",
"#OOOO  $.Xo+  +@$$XXXXXXX..XXXXX",
"#OOOOO $$Xo+  +@$$XXXXXXX.......",
"%OOO   $$Xo++++@$XXXXXXXX.......",
"%OO    $.XOO  +@$XXXXXXXX......."
};
