/* XPM */
static char *result[] = {
/* columns rows colors chars-per-pixel */
"32 32 10 1 ",
"  c #0A0B0F",
". c #0D0C0F",
"X c #151115",
"o c #3E140D",
"O c #140D12",
"+ c #251E23",
"@ c #3C343B",
"# c #3C343A",
"$ c #808192",
"% c #544A54",
/* pixels */
"                .........    .. ",
"               .........  ......",
"             ...........  ......",
"       ..    ...........  ......",
"     ......X ...........  ......",
"  .......XXX ..........   ......",
" ..XXXXXXX   ....          XXX..",
"                                ",
"...     ....... ................",
"....     ...... .............X..",
".....  ........ .............X..",
"...... ........ .............X..",
"...... ......XX ...........XX...",
".....  ......XX .....XXXXXXXX...",
"..     XXXXXXXX XXXXXXXXXXXXX...",
"                                ",
"oooooooooooooooooooooooooooooooo",
"OOOOOOOOoOOOooOOOOooOOOooOOOooOO",
"+O+++++O+O+O++O++O++O+OOOO+O++O+",
"+O++O++O+O+O++O++O++O++++++O++O+",
"@OOOO@@OOO#OOOO@@OOOO@XXXX@OOOO@",
"@###############@@@@@@##########",
"................................",
"+@@@   ++@  ++  +@@@@@@ @+XXX++ ",
"      +++@ +@@           @@@@@@ ",
" +++  ++@@X    X  ++@@        X ",
"++@++X@+@+X++  X+++++@@  @++++XX",
"++@++X@+@@X++++X+++@@@@X+++++++X",
"@@@@@X@@@@X++@+X@@@@@@@X+@@@@++X",
"@@@@@X@@@@X@@@@X@@@@@@@X@@@@@@+X",
"$$$@@+@@$$+$$@@+$$@$$$$+$$@@$$@+",
"%%%%$+%$%%+%%%$+%%$%%%%+%%$$%%$+"
};
