/* XPM */
static char *knigt_atack_R_41740570074[] = {
/* columns rows colors chars-per-pixel */
"32 32 8 1 ",
"  c #353540",
". c #735B42",
"X c #EEB551",
"o c #5C699F",
"O c #918D8D",
"+ c #BFB8B4",
"@ c #EDE4DA",
"# c #8B9150",
/* pixels */
"################################",
"################################",
"################################",
"################################",
"################################",
"################################",
"################################",
"################################",
"#####        ###################",
"##### oooooo  ##################",
"#####    oooo ##################",
"#######   oo     ###############",
"####### @@@OOOOO ###############",
"####### @         ############# ",
"####### O @@@++++ ##############",
"####### O @ + + + ########### ##",
"####### O + + + + ##############",
"####### O + + + + ##############",
"####### O +++++++   ########### ",
"######            X             ",
"###### oooXX      XX++++++++++  ",
"###### oooX  X....X+++++++++++@ ",
"###### oooX  X....X++++++++++@@ ",
"###### oooX       XX+++++++++@  ",
"###### XXXX   +   X            #",
"######      #   #   ############",
"################################",
"################################",
"################################",
"################################",
"################################",
"################################"
};
