/* XPM */
static char *result[] = {
/* columns rows colors chars-per-pixel */
"32 32 6 1 ",
"  c #8B9150",
". c #1B1B1B",
"X c #FFF21B",
"o c #F2741B",
"O c #FBC41B",
"+ c #3F4541",
/* pixels */
"                                ",
"                                ",
"                                ",
"                                ",
"                                ",
"                                ",
"                                ",
"                                ",
"                                ",
"                                ",
"              ....              ",
"             .XXXX.             ",
"             .oOXX.             ",
"             .oOOX.             ",
"             .ooXX.             ",
"             .ooXX.             ",
"             .oOOX.             ",
"             .ooOX.             ",
"             .oooo.             ",
"              ....              ",
"                                ",
"                                ",
"                                ",
"             ++++++             ",
"             ++++++             ",
"              ++++              ",
"                                ",
"                                ",
"                                ",
"                                ",
"                                ",
"                                "
};
