/* XPM */
static char *result[] = {
/* columns rows colors chars-per-pixel */
"32 32 5 1 ",
"  c #8B9150",
". c #1B1B1B",
"X c #FFF21B",
"o c #FBC41B",
"O c #F2741B",
/* pixels */
"                                ",
"                                ",
"                                ",
"                                ",
"                                ",
"                                ",
"                                ",
"                                ",
"                                ",
"                                ",
"                                ",
"             ......             ",
"            .XXXXXX.            ",
"           .XXoooooO.           ",
"           .XooXXooO.           ",
"           .XoXooOoO.           ",
"           .XoXooOoO.           ",
"           .XooOOooO.           ",
"           .XoooooOO.           ",
"            .OOOOOO.            ",
"             ......             ",
"                                ",
"                                ",
"                                ",
"                                ",
"                                ",
"                                ",
"                                ",
"                                ",
"                                ",
"                                ",
"                                "
};
