/* XPM */
static char *result[] = {
/* columns rows colors chars-per-pixel */
"32 32 6 1 ",
"  c #8B9150",
". c #557D55",
"X c #353540",
"o c #604B3D",
"O c #735B42",
"+ c #302E38",
/* pixels */
"                                ",
"                                ",
"                                ",
"...  ......  ......  ......  ...",
"XX.  .XXXX.  .XXXX.  .XXXX.  .XX",
"XX....XooX....XooX....XooX....XX",
"XXXXXXXOOXXXXXXOOXXXXXXOOXXXXXXX",
"XooooooOOooooooOOooooooOOooooooX",
"XoOOOOoOOoOOOOoOOoOOOOoOOoOOOOoX",
"XoOOOOoOOooooooooooooooOOoOOOOoX",
"XoOOOOoOOoXXXXXXXXXXXXoOOoOOOOoX",
"XoOOOOOOOoXXXXXXXXXXXXoOOOOOOOoX",
"XoOOOOooooX++++++++++XooooOOOOoX",
"XOOOOOoXXXX++++++++++XXXXoOOOOOX",
"XOOOOOoXXXX++++++++++XXXXoOOOOOX",
"XOOooooX++++++++++++++++XooooOOX",
"XOOoXXXX++++++++++++++++XXXXoOOX",
"XOOoXXXX++++++++++++++++XXXXoOOX",
"XOOoX++++++++++++++++++++++XoOOX",
"XoOoX++++++++++++++++++++++XoOoX",
"XoOoX++++++++++++++++++++++XoOoX",
"XoOoX++++++++++++++++++++++XoOoX",
"XoOoX++++++++++++++++++++++XoOoX",
"XoOoX++++++++++++++++++++++XoOoX",
"XoOoX++++++++++++++++++++++XoOoX",
"XXOoX+++++++XXXXXXXX+++++++XoOXX",
".XOoX++XXXXXX......XXXXXX++XoOX.",
".XXXXXXX................XXXXXXX.",
"................................",
" ......  ......  ......  ...... ",
"                                ",
"                                "
};
