/* XPM */
static char *aa8639c99cea43eaff9e75c2bdc6e035lbJKcV7gDJKBJYph[] = {
/* columns rows colors chars-per-pixel */
"32 32 8 1 ",
"  c None",
". c #6C5635",
"X c #281B17",
"o c #7F6F3F",
"O c #2E2416",
"+ c #0D0B05",
"@ c #3A2E1D",
"# c #150D0B",
/* pixels */
"        ..... .....       ......",
".......X.....X.....X.....X......",
".......X.....XXXXXXX.....X......",
"XXXXXXXXXXXXXX.....X.....XXXXXXX",
"...X.........X.....XXXXXXX......",
"...Xoo.......X.....X.....X......",
"...XoooooooooX.....X.....Xoooooo",
"oooXOOOOOOOOOXooooo+ooooo+O@@OOO",
"OO@+OOOOOOOOO+@OOOO+OOO@@+O@@@OO",
"O@@+O@@@@@@@O+@@@OO+OOO@@+++++++",
"++++++++++++++++++++++++++++++++",
"+++++++++++XXX++XXXXX++++++XXXXX",
"++XXXXXXX++XXX++XXXXX+XXX++XXXXX",
"++XXXXXXX+++++++++++++XXX+++++++",
"++XXXXXXX+++++++++++++++++++++++",
"++++++++++++++++++++++++++++++++",
"+++++++++++++++++#####++++++++++",
"+####++++++++++++#####++++++++++",
"+####+++++###++++++++++++++####+",
"++++++++++###++++++++++++++####+",
"+++++++++++++++++##+++++++++++++",
"+++++++++++++++++##++++++++++##+",
"++++++++++++##+++++++++++++++##+",
"++++++++++++##+++++++++##+++++++",
"+++++###+++++++++++++++##+++++++",
"+++++###++++++++++++++++++++++++",
"+++++###++++++++++++++++++++++++",
"++++++++++++++++++++++++++++++++",
"++++++++++++++++++++++++++++++++",
"++++++++++++++++++++++++++++++++",
"++++++++++++++++++++++++++++++++",
"++++++++++++++++++++++++++++++++"
};
