/* XPM */
static char *result[] = {
/* columns rows colors chars-per-pixel */
"32 32 2 1 ",
"  c #8B9150",
". c #557D55",
/* pixels */
"                                ",
"                                ",
"                                ",
"                                ",
"                      . ....    ",
"     ...                ....    ",
"     ... .          ... ....    ",
"     ...            ... ....    ",
"         ..         ...         ",
"      .. ..             ...     ",
"      ..              . ...     ",
"                        ...     ",
"                                ",
"                                ",
"                                ",
"                                ",
"                                ",
"                                ",
"                                ",
"                                ",
"      ...                .      ",
"      ...             ..        ",
"    . ... .           .. ...    ",
"                         ...    ",
"     .. ....        .... ...    ",
"     .. ....        ....        ",
"        ....        .... .      ",
"        ....        ....        ",
"                                ",
"                                ",
"                                ",
"                                "
};
