/* XPM */
static char *result[] = {
/* columns rows colors chars-per-pixel */
"32 32 8 1 ",
"  c #353540",
". c #735B42",
"X c #EEB551",
"o c #5C699F",
"O c #918D8D",
"+ c #BFB8B4",
"@ c #EDE4DA",
"# c #8B9150",
/* pixels */
"################################",
"#####################    #######",
"####################  @@  ######",
"#################### ++@@ ######",
"#################### ++++ ######",
"#################### ++++ ######",
"#################### ++++ ######",
"#################### ++++ ######",
"#####   ############ ++++ ######",
"##### o      ####### ++++ ######",
"#####  ooooo  ###### ++++ ######",
"######   oooo ###### ++++ ######",
"#######   oo     ### ++++ ######",
"####### @@@OOOOO ##  X++X  #####",
"####### @         # XXXXXX #####",
"####### O @@@++++ #   ..   #####",
"####### O @ + + + ### .. #######",
"####### O + + + + ### .. #######",
"####### O + + + + ### .. #######",
"####### O +++++++ ### XX #######",
"######            ###    #######",
"###### oooXXXXXX ###############",
"#####  oooX      ###############",
"##### ooooX OOOO ###############",
"##### XXXXX OOOO ###############",
"#####            ###############",
"################################",
"################################",
"################################",
"################################",
"################################",
"################################"
};
