/* XPM */
static char *result[] = {
/* columns rows colors chars-per-pixel */
"32 32 6 1 ",
"  c #353540",
". c #557D55",
"X c #918D8D",
"o c #BFB8B4",
"O c #EDE4DA",
"+ c #557D55",
/* pixels */
"++++++++++++++++++++++++++++++++",
"++++++++++++++++++++++++++++++++",
"++++++++++           +++++++++++",
"+++++++++  oooooooOO  ++++++++++",
"+++++++++ oooooooooOO ++++++++++",
"+++++++++ ooooooooooo ++++++++++",
"+++++++++ ooooooooooo ++++++++++",
"+++++++++ ooooooooooo ++++++++++",
"+++++++++ ooooooooooo ++++++++++",
"+++++++++ ooooooooooo    +++++++",
"+++++++++ ooooooooooooOO  ++++++",
"+++++++   XoooooooooXooOO ++++++",
"++++++  ooXXXXXXXXXXXoooo ++++++",
"++++++ ooooXXXXXXXXXXoooo ++++++",
"++++++ oooooo XXXXXXooooo .+++++",
"++++++ oooooo XXXX oooooo .+++++",
"++++++ oooooo XXXX oooooo .+++++",
"+++++. XooooX XXXX XooooX .+++++",
"+++++. XXXXXXooooooXXXXXX .+++++",
"+++++. XXXXXXooooooXXXXXX .+++++",
"+++++. XXXXXXoooooooXXXXX .+++++",
"+++++. XXXXXooooooooo XXX .+++++",
"+++++. XXX oooooooooo XX  .+++++",
"+++++.  XX XooooooooX    ..+++++",
"+++++..    XXXXXXXXXX ....++++++",
"++++++....  XXXXXXXX  .+++++++++",
"+++++++++..          ..+++++++++",
"++++++++++............++++++++++",
"++++++++++++++++++++++++++++++++",
"++++++++++++++++++++++++++++++++",
"++++++++++++++++++++++++++++++++",
"++++++++++++++++++++++++++++++++"
};
