/* XPM */
static char *result[] = {
/* columns rows colors chars-per-pixel */
"27 32 55 1 ",
"  c #100A1D",
". c #1E1228",
"X c #21142B",
"o c #331F3A",
"O c #2F2031",
"+ c #342432",
"@ c #45303F",
"# c #442948",
"$ c #583E48",
"% c #553356",
"& c #3F4256",
"* c #694D52",
"= c #64405C",
"- c #68435D",
"; c #795B5D",
": c #786457",
"> c #714F62",
", c #7B5364",
"< c #785665",
"1 c #7C5E72",
"2 c #835C68",
"3 c #86616A",
"4 c #8D626B",
"5 c #8B656C",
"6 c #926F6F",
"7 c #936F6F",
"8 c #946D6F",
"9 c #92736C",
"0 c #9D7573",
"q c #9F7472",
"w c #9B7873",
"e c #A07272",
"r c #AF867A",
"t c #AC897A",
"y c #B0857A",
"u c #B88E7D",
"i c #806680",
"p c #BD9B82",
"a c #C09881",
"s c #C29E83",
"d c #C7A285",
"f c #C6A385",
"g c #C8A185",
"h c #CBA687",
"j c #CFAC89",
"k c #D0AA89",
"l c #D4AF8A",
"z c #D7B48C",
"x c #D8B48C",
"c c #DCB88E",
"v c #E0BD90",
"b c #E8CDAB",
"n c #F0DDC7",
"m c #FFFDFD",
"M c None",
/* pixels */
"MMM%%%%%%%%%%%%%%%%%%%%%MMM",
"MMM><1iiiiiiiiiiiiiii1<>MMM",
"MM%wvnmmmmmmmmmmmmmmmnvw%MM",
"%>wpvbnnnnnnnnnnnnnnnbvpw>%",
"%<vvvvvvvvvvvvvvvvvvvvvvv<%",
"X@yyygvvvvvvvvvvvvvvvgyyy@X",
" +eeeavvvvvvvvvvvvvvvaeee+ ",
"MM o%%%4eeeeeeeeeee4%%%o MM",
"MM o%%%4eeeeeeeeeee4%%%o MM",
"MM $eavvvvvvvvvvvvvvvae$ MM",
"MMX*ygvvvvzpppjvlkvvvgy*XMM",
"MM%wvvvvvvp%%%wvyevvvvvw%MM",
"MM%5aaaxvw7,,,5wqewtvvvw%MM",
"MM%,eeekv%-eee,%4e%<vvvw%MM",
"MM%,eukcvpskkkdphkpfvgy2%MM",
"MM%,eavvvvvvvvvvvvvvvae,%MM",
"MM%wvvvvv%-e,%%%pv%<vvvw%MM",
"MM%wvvvvv<3y8<<<fv<6vvv9#MM",
"MM%wvvvvvvvvvvvvvvvvvvv: MM",
"%=,0aaaaaaaaaaaaaaaaaaa;o. ",
"%-eeeeeeeeeeeeeeeeeeeee,%X ",
"%-eukkkkkkkkkkkkkkkkkkkr4O ",
"%-eavvvvvvvvvvvvvvvvvvvae+ ",
"MM o%,eeeeeeeeeeeeeee,%o MM",
"MM o%,eeeeeeeeeeeeeee,%o MM",
"MMM                     MMM",
"MMMM                   MMMM",
"MMMMMMMMMMMMMMMMMMMMMMMMMMM",
"MMMMMMMMM&&&&&&&MMMMMMMMMMM",
"MMMMMMMMM&&&&&&&MMMMMMMMMMM",
"MMMMMM&&&&&&&&&&&&&&MMMMMMM",
"MMMMM&&&&&&&&&&&&&&&MMMMMMM"
};
