/* XPM */
static char *result[] = {
/* columns rows colors chars-per-pixel */
"32 32 3 1 ",
"  c #353540",
". c #EDE4DA",
"X c #8B9150",
/* pixels */
"XXXXXXXXXXXXXXXXXXXXXXXXXXXXXXXX",
"XXXXXXXXXXXXXXXXXXXXXXXXXXXXXXXX",
"XXXXXXXXXXXXXXXXXXXXXXXXXXXXXXXX",
"XXXXXXXXXXXXXXXXXXXXXXXXXXXXXXXX",
"XXXXXXXXXXXXXXXXXXXXXXXXXXXXXXXX",
"XXXXXXXXXXXXXXXXXXXXXXXXXXXXXXXX",
"XXXXXXXXXXXXXXXXXXXXXXXXXXXXXXXX",
"XXXXXXXXXXXXXXXXXXXXXXXXXXXXXXXX",
"XXXXXXXXXXXXXXXXXXXXXXXXXXXXXXXX",
"XXXXXXXXXXX          XXXXXXXXXXX",
"XXXXXXXXXXX ........ XXXXXXXXXXX",
"XXXXXXXXXXX ........ XXXXXXXXXXX",
"XXXXXXXXXXX ........ XXXXXXXXXXX",
"XXXXXXXXXXX .  ...   XXXXXXXXXXX",
"XXXXXXXXXXX .  ...   XXXXXXXXXXX",
"XXXXXXXXXXX .... ... XXXXXXXXXXX",
"XXXXXXXXXXX ........ XXXXXXXXXXX",
"XXXXXXXXXXX ........ XXXXXXXXXXX",
"XXXXXXXXXXX    ..    XXXXXXXXXXX",
"XXXXXXXXXXXXX .... XXXXXXXXXXXXX",
"XXXXXXXXXXXXX  ..  XXXXXXXXXXXXX",
"XXXXXXXXXXXXX .... XXXXXXXXXXXXX",
"XXXXXXXXXXXXX .  . XXXXXXXXXXXXX",
"XXXXXXXXXXXXX      XXXXXXXXXXXXX",
"XXXXXXXXXXXXXXXXXXXXXXXXXXXXXXXX",
"XXXXXXXXXXXXXXXXXXXXXXXXXXXXXXXX",
"XXXXXXXXXXXXXXXXXXXXXXXXXXXXXXXX",
"XXXXXXXXXXXXXXXXXXXXXXXXXXXXXXXX",
"XXXXXXXXXXXXXXXXXXXXXXXXXXXXXXXX",
"XXXXXXXXXXXXXXXXXXXXXXXXXXXXXXXX",
"XXXXXXXXXXXXXXXXXXXXXXXXXXXXXXXX",
"XXXXXXXXXXXXXXXXXXXXXXXXXXXXXXXX"
};
