/* XPM */
static char *result[] = {
/* columns rows colors chars-per-pixel */
"32 32 10 1 ",
"  c #5C699F",
". c #769FA6",
"X c #353540",
"o c #604B3D",
"O c #BDA351",
"+ c #8B9150",
"@ c #557D55",
"# c #735B42",
"$ c #446350",
"% c #3E554C",
/* pixels */
"       ..XoXO++++++@XoX..       ",
"       ..X#XO++++++@X#X..       ",
"       ..XXXO++++++@XXX..       ",
"       ..XOOO++++++@@@X..       ",
"       ..XO++++++++++@X..       ",
"       ..XO++++++++++@X..       ",
"       ..XOOO++++++@@@X..       ",
".........XXXO++++++@XXX.........",
".........XoXO++++++@XoX.........",
"XXXXXXXXXXXX$$$$$$@$$XXXXXXXXXXX",
"oXOOOOX#oXOO@@@@@@@@OOX#oXOOOOX#",
"XXO++OXXXXO+$@@@@@@$+OXXXXO++OXX",
"OOO++OOOOOO+$@@@@@@$+OOOOOO++OOO",
"++++++++++++$@$$$$$$++++++++++++",
"++++++++++$$$@$$$$$$$$++++++++++",
"++++++++++$$$$$$$$$$$$++++++++++",
"++++++++++$$$$$$$$$$$$++++++++++",
"++++++++++$$$$$$$$$$$$++++++++++",
"+++++++++++$$$$$$$$$++++++++++++",
"@@@++@@@@@@$$%%%$@%$+@@@@@@++@@@",
"XX@++@XXXX@$$%$$@@%$+@XXXX@++@XX",
"oX@@@@X#oX@%%%@@@@@%@@X#oX@@@@X#",
"XXXXXXXXXXXX$$$@@@$$$$XXXXXXXXXX",
".........X#XO++++++@X#X.........",
".........XXXO++++++@XXX.........",
"       ..XOOO++++++@@@X..       ",
"       ..XO++++++++++@X..       ",
"       ..XO++++++++++@X..       ",
"       ..XOOO++++++@@@X..       ",
"       ..XXXO++++++@XXX..       ",
"       ..XoXO++++++@XoX..       ",
"       ..X#XO++++++@X#X..       "
};
