/* XPM */
static char *result[] = {
/* columns rows colors chars-per-pixel */
"32 32 10 1 ",
"  c #5C699F",
". c #769FA6",
"X c #353540",
"o c #735B42",
"O c #BDA351",
"+ c #8B9150",
"@ c #557D55",
"# c #604B3D",
"$ c #446350",
"% c #3E554C",
/* pixels */
"       ..XoXO++++++@XoX..       ",
"       ..XXXO++++++@XXX..       ",
"       ..XOOO++++++@@@X..       ",
"        .XO++++++++++@X.        ",
"        .XO++++++++++@X.        ",
"       ..XOOO++++++@@@X..       ",
"       ..XXXO++++++@XXX..       ",
"       ..X#XO++++++@X#X..       ",
"       ..XoXO++++++@XoX..       ",
"       ..XXXO++++++@XXX..       ",
"       ..XOOO+$$$$+@@@X..       ",
"        .XO+++$$$$+++@X.        ",
"        .X@$$$$$$$$$$%X.        ",
"       ..X@@@$$$$$$%%%X..       ",
"       ..XXX@$$$$$$%XXX..       ",
"       ..X#X@$$$$$$%X#X..       ",
"       ..XoX@$$$$$$%XoX..       ",
"       ..XXX@$$$$$$%XXX..       ",
"       ..X@@@$$$$$$%%%X..       ",
"        .X@$$$$$$$$$$%X.        ",
"        .XO+++$$$$$$$%X.        ",
"       ..XOOO+$$$$+@@@X..       ",
"       ..XXXO++++++@XXX..       ",
"       ..X#XO++++++@X#X..       ",
"       ..XoXO++++++@XoX..       ",
"       ..XXXO++++++@XXX..       ",
"       ..XOOO++++++@@@X..       ",
"        .XO++++++++++@X.        ",
"        .XO++++++++++@X.        ",
"       ..XOOO++++++@@@X..       ",
"       ..XXXO++++++@XXX..       ",
"       ..X#XO++++++@X#X..       "
};
