/* XPM */
static char *result[] = {
/* columns rows colors chars-per-pixel */
"32 32 10 1 ",
"  c #5C699F",
". c #769FA6",
"X c #353540",
"o c #604B3D",
"O c #BDA351",
"+ c #735B42",
"@ c #557D55",
"# c #8B9150",
"$ c #446350",
"% c #3E554C",
/* pixels */
"                                ",
"                                ",
"                                ",
"                                ",
"                                ",
"                                ",
"                                ",
"...  ......  ......  ......  ...",
"................................",
"XXXXXXXXXXXXXXXXXXXXXXXXXXXXXXXX",
"oXOOOOX+oXOO@@X+oX@@OOX+oXOOOOX+",
"XXO##OXXXXO#$@XXXX@$#OXXXXO##OXX",
"OOO##OOOOOO#$@@@@@@$#OOOOOO##OOO",
"############$$$$$$$$############",
"##########$$$$$$$$$$$$##########",
"##########$$$$$$$$$$$$##########",
"##########$$$$$$$$$$$$##########",
"##########$$$$$$$$$$$$##########",
"###########$$$$$$$$$############",
"@@@##@@@@@@$$%%%%%%$#@@@@@@##@@@",
"XX@##@XXXX@$$%XXXX%$#@XXXX@##@XX",
"oX@@@@X+oX@%%%X+oX%%@@X+oX@@@@X+",
"XXXXXXXXXXXXXXXXXXXXXXXXXXXXXXXX",
"................................",
"...  ......  ......  ......  ...",
"                                ",
"                                ",
"                                ",
"                                ",
"                                ",
"                                ",
"                                "
};
