/* XPM */
static char *result[] = {
/* columns rows colors chars-per-pixel */
"32 32 6 1 ",
"  c #8B9150",
". c #353540",
"X c #EDE4DA",
"o c #557D55",
"O c #604B3D",
"+ c #735B42",
/* pixels */
"                                ",
"                                ",
"                                ",
"                                ",
"                                ",
"            ........            ",
"           ..    XX..           ",
"           .      XX.           ",
"           .        .           ",
"           .        .           ",
"           .        .           ",
"           .        .           ",
"           .o      o.           ",
"           .oooooooo.           ",
"           .oooooooo.           ",
"           .oooooooo.           ",
"           .oooooooo.           ",
"           .oooooooo.           ",
"           ..oooooo..           ",
"           o..OOOO..o           ",
"          ooo.OOOO.ooo          ",
"          oo..++++..oo          ",
"          oo.++++++.oo          ",
"          oo.++++++.oo          ",
"          oo..++++..oo          ",
"          ooo......ooo          ",
"          oooooooooooo          ",
"           oooooooooo           ",
"                                ",
"                                ",
"                                ",
"                                "
};
