/* XPM */
static char *result[] = {
/* columns rows colors chars-per-pixel */
"32 32 7 1 ",
"  c #8B9150",
". c #353540",
"X c #557D55",
"o c #EDE4DA",
"O c #446350",
"+ c #604B3D",
"@ c #735B42",
/* pixels */
"                                ",
"                                ",
"                                ",
"                                ",
"                                ",
"                                ",
"             ......             ",
"            ..XXoo..            ",
"            .XXXXoo.            ",
"           ..XXXXXX..           ",
"           .XXXXXXXo.           ",
"          ..XOXXXXOX..          ",
"          .XXOOOOOOXo.          ",
"          .XXXOOOOXXX.          ",
"          .XOXXXXXXOX.          ",
"          .XOOOOOOOOX.          ",
"          .XXOOOOOOXX.          ",
"          .OXXXXXXXXO.          ",
"          .OOOOOOOOOO.          ",
"          ..OOOOOOOO..          ",
"          X...++++...X          ",
"          XX..@@@@..XX          ",
"          XX.@@@@@@.XX          ",
"          XX.@@@@@@.XX          ",
"          XX..@@@@..XX          ",
"          XXX......XXX          ",
"          XXXXXXXXXXXX          ",
"           XXXXXXXXXX           ",
"                                ",
"                                ",
"                                ",
"                                "
};
