/* XPM */
static char *result[] = {
/* columns rows colors chars-per-pixel */
"32 32 8 1 ",
"  c #8B9150",
". c #353540",
"X c #E39347",
"o c #EDE4DA",
"O c #E56F4B",
"+ c #557D55",
"@ c #604B3D",
"# c #735B42",
/* pixels */
"                                ",
"                                ",
"           ..........           ",
"          ..XXXXXXoo..          ",
"          .XXXXXXXXoo.          ",
"          .XXXXXXXXXX.          ",
"          .XXXXXXXXXX.          ",
"          .XXXXXXXXXX.          ",
"          .XXXXXXXXXX.          ",
"          .XXXXXXXXXX.          ",
"          .XXXXXXXXXX.          ",
"          .OXXXXXXXXO.          ",
"          .OOOOOOOOOO.          ",
"          .OOOOOOOOOO.          ",
"          .OOOOOOOOOO.          ",
"          .OOOOOOOOOO.          ",
"          .OOOOOOOOOO.          ",
"          .OOOOOOOOOO.          ",
"          .OOOOOOOOOO.          ",
"          ..OOOOOOOO..          ",
"          +...@@@@...+          ",
"          ++..####..++          ",
"          ++.######.++          ",
"          ++.######.++          ",
"          ++..####..++          ",
"          +++......+++          ",
"          ++++++++++++          ",
"           ++++++++++           ",
"                                ",
"                                ",
"                                ",
"                                "
};
