/* XPM */
static char *result[] = {
/* columns rows colors chars-per-pixel */
"32 32 139 2 ",
"   c #353540",
".  c #3E3D47",
"X  c #4E4D55",
"o  c #4E4C55",
"O  c #4D4B54",
"+  c #4C4A53",
"@  c #4B4952",
"#  c #494851",
"$  c #3C3C46",
"%  c #47464F",
"&  c #46464F",
"*  c #45454E",
"=  c #44444D",
"-  c #43434C",
";  c #42424B",
":  c #41414A",
">  c #404049",
",  c #393843",
"<  c #3E3E48",
"1  c #3D3D47",
"2  c #3B3B45",
"3  c #3A3A44",
"4  c #393943",
"5  c #363641",
"6  c #373742",
"7  c #383843",
"8  c #6B696E",
"9  c #BEB7B3",
"0  c #BFB8B4",
"q  c #68666B",
"w  c #BDB7B3",
"e  c #666469",
"r  c #BDB6B3",
"t  c #BDB6B2",
"y  c #BCB5B1",
"u  c #7F7B7E",
"i  c #A59F9E",
"p  c #A6A19F",
"a  c #A7A2A0",
"s  c #A8A3A1",
"d  c #AAA4A2",
"f  c #ABA5A3",
"g  c #848182",
"h  c #ACA6A4",
"j  c #AEA7A5",
"k  c #AFA8A6",
"l  c #B0A9A7",
"z  c #B1AAA8",
"x  c #B2ABA9",
"c  c #B3ACAA",
"v  c #B4ADAB",
"b  c #8B8788",
"n  c #B5AFAC",
"m  c #B7B0AD",
"M  c #B8B1AE",
"N  c #B9B2AF",
"B  c #BAB3B0",
"V  c #BBB4B1",
"C  c #8F8B8C",
"Z  c #BCB6B2",
"A  c #4C4B54",
"S  c #4C4B53",
"D  c #4B4A52",
"F  c #4A4851",
"G  c #484750",
"H  c #46454F",
"J  c #45444E",
"K  c #44434D",
"L  c #40404A",
"P  c #3F3F49",
"I  c #393944",
"U  c #918D8D",
"Y  c #636167",
"T  c #EDE4DA",
"R  c #8D898A",
"E  c #B6B0AD",
"W  c #B4AEAB",
"Q  c #B3ACA9",
"!  c #B1ABA9",
"~  c #878485",
"^  c #ADA6A4",
"/  c #A9A3A1",
"(  c #A7A1A0",
")  c #A6A09F",
"_  c #807C7F",
"`  c #A39E9D",
"'  c #A29D9C",
"]  c #A19C9B",
"[  c #9F9A9A",
"{  c #9F9999",
"}  c #9D9898",
"|  c #7A7779",
" . c #9A9595",
".. c #989393",
"X. c #42414B",
"o. c #43424B",
"O. c #44434C",
"+. c #515058",
"@. c #4F4E56",
"#. c #504F57",
"$. c #525058",
"%. c #5D5B61",
"&. c #4A4952",
"*. c #55545B",
"=. c #57555C",
"-. c #58565D",
";. c #59575E",
":. c #8F8B8B",
">. c #C2BBB6",
",. c #ECE3DA",
"<. c #C6BEB9",
"1. c #C8C1BC",
"2. c #888486",
"3. c #615F65",
"4. c #B9B3AF",
"5. c #E1D8D0",
"6. c #E0D8CF",
"7. c #626066",
"8. c #B0AAA8",
"9. c #AFA9A6",
"0. c #AEA8A5",
"q. c #D2CAC3",
"w. c #D1C9C2",
"e. c #5E5C63",
"r. c #A49E9D",
"t. c #C6BFB9",
"y. c #C5BEB9",
"u. c #5B5960",
"i. c #9D9897",
"p. c #9C9797",
"a. c #9B9696",
"s. c #9A9495",
"d. c #3B3A45",
"f. c #3C3B45",
"g. c #4B4A53",
"h. c #46454E",
"j. c #4A4951",
"k. c #5A595F",
"l. c #5C5A61",
/* pixels */
"  . X o O + @ # $ % & * = - ; : > , < 1 $ 2 3 4 5 6 5   5 6 7   ",
"  8 9 0 0 0 0 0 8 9 0 0 0 0 0 0 0 q w 0 0 0 0 0 e r 0 0 9 t y 6 ",
"  u i p a s d f g h j k l z x c v b n m M N B V C Z 9 0 0 0 0 5 ",
"  y y   A S D F G % H J K < ; : L P 2 1 $ 2 3 I 7 6 5   5 y y   ",
"  0 0   0 0 0 0 0 0 0 0 0 U 0 0 0 0 U 0 0 0 0 0 0 0 0 0   t y   ",
"  0 0   U U U U U U U U U U U U U U U U U U U U U U U U   0 0   ",
"  0 0   U 0 0 0 0 0 0 U 0 0 0 0 0 0 0 0 U 0 0 0 0 0 0 U   0 0   ",
"  U Y   U 0 0 0 0 0 0 U 0 0 0 0 0 0 0 0 U 0 0 0 0 0 0 U   Y U   ",
"  T T   U 0 0 0 0 0 0 U 0 0 0 0 0 0 0 0 U 0 0 0 0 0 0 U   0 0   ",
"  0 T   U 0 0 0 0 0 0 U 0 0 0 0 0 0 0 0 U 0 0 0 0 0 0 U   0 0   ",
"  0 0   U 0 0 0 0 0 0 U 0 0 0 0 0 0 0 0 U 0 0 0 0 0 0 U   0 0   ",
"  0 0   U 0 0 0 0 0 0 U 0 0 0 0 0 0 0 0 U 0 0 0 0 0 0 U   0 0   ",
"  0 0   U U U U U U U U U U U U U U U U U U U U U U U U   0 0   ",
"  0 0   0 0 0 0 0 0 0 0 0 U 0 0 0 0 U 0 0 0 0 0 0 0 0 0   0 0   ",
"  U Y   0 0 0 0 0 0 0 0 0 U 0 0 0 0 U 0 0 0 0 0 0 0 0 0   Y U   ",
"  T T   0 0 0 0 0 0 0 0 0 U 0 0 0 0 U 0 0 0 0 0 0 0 0 0   0 0   ",
"  0 T   0 0 0 0 0 0 0 0 0 U 0 0 0 T U 0 0 0 0 0 0 0 0 0   0 0   ",
"  0 0   0 0 0 0 0 0 0 0 0 U 0 0 0 0 U 0 0 0 0 0 0 0 0 0   0 0   ",
"  0 0   0 0 0 0 0 0 0 0 0 U 0 0 0 0 U 0 0 0 0 0 0 0 0 0   0 0   ",
"  0 0   0 0 0 0 0 0 0 0 0 U 0 0 0 0 U 0 0 0 0 0 0 0 0 0   0 0   ",
"  0 0   0 0 0 0 0 0 0 0 0 U 0 0 0 0 U 0 0 0 0 0 0 0 0 0   0 0   ",
"  0 0   U U U U U U U U U U U U U U U U U U U U U U U U   0 0   ",
"  0 0   U 0 0 0 0 0 0 U 0 0 0 0 0 0 0 0 U 0 0 0 0 0 0 U   0 0   ",
"  U Y   U 0 0 0 0 0 0 U 0 0 0 0 0 0 0 0 U 0 0 0 0 0 0 U   Y U   ",
"  T T   U 0 0 0 0 0 0 U 0 0 0 0 0 0 0 0 U 0 0 0 0 0 0 U   0 0   ",
"  0 T   U 0 0 0 0 0 0 U 0 0 0 0 0 0 0 0 U 0 0 0 0 0 0 U   0 0   ",
"  0 0   U 0 0 0 0 0 0 U 0 0 0 0 0 0 0 0 U 0 0 0 0 0 0 U   0 0   ",
"  t V   R M E n W Q ! ~ k j ^ f d / ( ) _ ` ' ] [ { } |    ...  ",
"  y y 3 2 $ . X.$ : o.O.J H G # +.K O X @.#.$.%.&.*.=.-.;.y y   ",
"  :.9 0 0 0 >.,.:.9 0 0 0 0 0 <.,.b 9 0 0 0 1.,.2.9 0 0 0 0 0 6 ",
"  3.4.B N M 5.6.7.z ! 8.9.0.h q.w.e.) ) i r.t.y.u.i.} p.a.s...6 ",
"  6 , 7 4 3 d.f.$ 1 < O.J H G # &.g.O h.& % G # j.D g.-.;.k.l.5 "
};
